{
  "accessors": [
    {
      "bufferView": 2,
      "componentType": 5126,
      "count": 39024,
      "max": [
        20.873210906982422,
        15.46672534942627,
        29.454313278198242
      ],
      "min": [
        -20.873210906982422,
        -14.269014358520508,
        4.9333139031659812e-05
      ],
      "type": "VEC3"
    },
    {
      "bufferView": 2,
      "byteOffset": 468288,
      "componentType": 5126,
      "count": 39024,
      "max": [
        1,
        1,
        1
      ],
      "min": [
        -1,
        -1,
        -1
      ],
      "type": "VEC3"
    },
    {
      "bufferView": 3,
      "componentType": 5126,
      "count": 39024,
      "max": [
        1,
        1,
        0.99999994039535522,
        1
      ],
      "min": [
        -1,
        -1,
        -0.99999552965164185,
        -1
      ],
      "type": "VEC4"
    },
    {
      "bufferView": 1,
      "componentType": 5126,
      "count": 39024,
      "max": [
        0.9988437294960022,
        0.99887317419052124
      ],
      "min": [
        0.0013468868564814329,
        0.0013762712478637695
      ],
      "type": "VEC2"
    },
    {
      "bufferView": 0,
      "componentType": 5125,
      "count": 165606,
      "max": [
        39023
      ],
      "min": [
        0
      ],
      "type": "SCALAR"
    },
    {
      "bufferView": 2,
      "byteOffset": 936576,
      "componentType": 5126,
      "count": 1828,
      "max": [
        20.859268188476562,
        14.181177139282227,
        2.2114682197570801
      ],
      "min": [
        -20.859268188476562,
        -14.26536750793457,
        2.1085445880889893
      ],
      "type": "VEC3"
    },
    {
      "bufferView": 2,
      "byteOffset": 958512,
      "componentType": 5126,
      "count": 1828,
      "max": [
        0.92473465204238892,
        0.92451953887939453,
        0.86695188283920288
      ],
      "min": [
        -0.92473834753036499,
        -0.92465859651565552,
        0.1765003502368927
      ],
      "type": "VEC3"
    },
    {
      "bufferView": 3,
      "byteOffset": 624384,
      "componentType": 5126,
      "count": 1828,
      "max": [
        1,
        0.23430237174034119,
        0.97917097806930542,
        1
      ],
      "min": [
        0.20211698114871979,
        -0.23433136940002441,
        -0.97919356822967529,
        1
      ],
      "type": "VEC4"
    },
    {
      "bufferView": 1,
      "byteOffset": 312192,
      "componentType": 5126,
      "count": 1828,
      "max": [
        0.9558870792388916,
        0.43327522277832031
      ],
      "min": [
        0.94645941257476807,
        0.42575585842132568
      ],
      "type": "VEC2"
    },
    {
      "bufferView": 0,
      "byteOffset": 662424,
      "componentType": 5125,
      "count": 8580,
      "max": [
        1827
      ],
      "min": [
        0
      ],
      "type": "SCALAR"
    }
  ],
  "asset": {
    "extras": {
      "author": "JustTomas (https://sketchfab.com/justtomas)",
      "license": "CC-BY-4.0 (http://creativecommons.org/licenses/by/4.0/)",
      "source": "https://sketchfab.com/3d-models/asus-n750jv-3ad34e05831e4826b2cee9d4bdb6082f",
      "title": "Asus N750JV"
    },
    "generator": "Sketchfab-5.47.0",
    "version": "2.0"
  },
  "bufferViews": [
    {
      "buffer": 0,
      "byteLength": 696744,
      "byteOffset": 0,
      "name": "floatBufferViews",
      "target": 34963
    },
    {
      "buffer": 0,
      "byteLength": 326816,
      "byteOffset": 696744,
      "byteStride": 8,
      "name": "floatBufferViews",
      "target": 34962
    },
    {
      "buffer": 0,
      "byteLength": 980448,
      "byteOffset": 1023560,
      "byteStride": 12,
      "name": "floatBufferViews",
      "target": 34962
    },
    {
      "buffer": 0,
      "byteLength": 653632,
      "byteOffset": 2004008,
      "byteStride": 16,
      "name": "floatBufferViews",
      "target": 34962
    }
  ],
  "buffers": [
    {
      "byteLength": 2657640,
      "uri": "scene.bin"
    }
  ],
  "images": [
    {
      "uri": "textures/Asus_N750JV_baseColor.jpeg"
    },
    {
      "uri": "textures/Asus_N750JV_metallicRoughness.png"
    },
    {
      "uri": "textures/Asus_N750JV_emissive.jpeg"
    }
  ],
  "materials": [
    {
      "doubleSided": true,
      "emissiveFactor": [
        1,
        1,
        1
      ],
      "emissiveTexture": {
        "index": 2,
        "texCoord": 0
      },
      "name": "Asus_N750JV",
      "pbrMetallicRoughness": {
        "baseColorFactor": [
          1,
          1,
          1,
          1
        ],
        "baseColorTexture": {
          "index": 0,
          "texCoord": 0
        },
        "metallicFactor": 0.26391006099999997,
        "metallicRoughnessTexture": {
          "index": 1,
          "texCoord": 0
        },
        "roughnessFactor": 1
      }
    },
    {
      "doubleSided": true,
      "emissiveFactor": [
        0,
        0,
        0
      ],
      "name": "Asus_N750JV_chrome",
      "pbrMetallicRoughness": {
        "baseColorFactor": [
          0.80000000000000004,
          0.80000000000000004,
          0.80000000000000004,
          1
        ],
        "metallicFactor": 0,
        "roughnessFactor": 0.72168423160000006
      }
    }
  ],
  "meshes": [
    {
      "primitives": [
        {
          "attributes": {
            "NORMAL": 1,
            "POSITION": 0,
            "TANGENT": 2,
            "TEXCOORD_0": 3
          },
          "indices": 4,
          "material": 0,
          "mode": 4
        }
      ]
    },
    {
      "primitives": [
        {
          "attributes": {
            "NORMAL": 6,
            "POSITION": 5,
            "TANGENT": 7,
            "TEXCOORD_0": 8
          },
          "indices": 9,
          "material": 1,
          "mode": 4
        }
      ]
    }
  ],
  "nodes": [
    {
      "children": [
        1
      ],
      "name": "RootNode (gltf orientation matrix)",
      "rotation": [
        -0.70710678118654746,
        -0,
        -0,
        0.70710678118654757
      ]
    },
    {
      "children": [
        2
      ],
      "name": "RootNode (model correction matrix)"
    },
    {
      "children": [
        3,
        4
      ],
      "name": "Asus_N750JV_.obj.cleaner.materialmerger.gles"
    },
    {
      "mesh": 0,
      "name": ""
    },
    {
      "mesh": 1,
      "name": ""
    }
  ],
  "samplers": [
    {
      "magFilter": 9729,
      "minFilter": 9987,
      "wrapS": 10497,
      "wrapT": 10497
    }
  ],
  "scene": 0,
  "scenes": [
    {
      "name": "OSG_Scene",
      "nodes": [
        0
      ]
    }
  ],
  "textures": [
    {
      "sampler": 0,
      "source": 0
    },
    {
      "sampler": 0,
      "source": 1
    },
    {
      "sampler": 0,
      "source": 2
    }
  ]
}

